<?xml version="1.0" encoding="utf-8"?>
<!-- Generator: Adobe Illustrator 16.0.0, SVG Export Plug-In . SVG Version: 6.00 Build 0)  -->
<!DOCTYPE svg PUBLIC "-//W3C//DTD SVG 1.1//EN" "http://www.w3.org/Graphics/SVG/1.1/DTD/svg11.dtd">
<svg version="1.1" id="Layer_1" xmlns="http://www.w3.org/2000/svg" xmlns:xlink="http://www.w3.org/1999/xlink" x="0px" y="0px"
	 width="181.879px" height="73.633px" viewBox="0 0 181.879 73.633" enable-background="new 0 0 181.879 73.633"
	 xml:space="preserve">
<g>
	<g>
		<path d="M74.812,58.41H99.07v5.52H68.027V12.742h6.785V58.41z"/>
		<g>
			<path d="M101.535,54.633c-5.156,0-9.352-1.693-12.586-5.08s-4.852-7.916-4.852-13.588V34.77c0-3.773,0.721-7.143,2.162-10.107
				s3.457-5.285,6.047-6.961s5.396-2.514,8.42-2.514c4.945,0,8.789,1.629,11.531,4.887s4.113,7.922,4.113,13.992v2.707h-25.77
				c0.094,3.75,1.189,6.779,3.287,9.088s4.764,3.463,7.998,3.463c2.297,0,4.242-0.469,5.836-1.406s2.988-2.18,4.184-3.727
				l3.973,3.094C112.691,52.184,107.91,54.633,101.535,54.633z M100.727,20.531c-2.625,0-4.828,0.955-6.609,2.865
				s-2.883,4.588-3.305,8.033h19.055v-0.492c-0.188-3.305-1.078-5.865-2.672-7.682S103.445,20.531,100.727,20.531z M103.891,0h7.875
				l-9.422,10.336l-5.238-0.018L103.891,0z"/>
		</g>
		<path d="M127.859,12.742l6.785,6v39.246c0,4.898-1.471,8.73-4.412,11.496s-6.861,4.148-11.76,4.148
			c-5.086,0-9.047-1.301-11.883-3.902s-4.254-6.246-4.254-10.934h6.75c0,2.93,0.803,5.215,2.408,6.855s3.932,2.461,6.979,2.461
			c2.789,0,5.045-0.879,6.768-2.637s2.596-4.219,2.619-7.383V12.742z"/>
		<path d="M163.676,55.984c-2.531,2.977-6.246,4.465-11.145,4.465c-4.055,0-7.143-1.178-9.264-3.533s-3.193-5.842-3.217-10.459
			v-22.75l6.504,6v16.574c0,5.766,2.344,8.648,7.031,8.648c4.969,0,8.273-1.852,9.914-5.555V28.707l6.504-9v40.039h-6.188
			L163.676,55.984z M157.402,13.816h7.875l-9.422,10.336l-5.238-0.018L157.402,13.816z"/>
		<path d="M181.879,59.93h-6.504v-48l6.504-10V59.93z"/>
	</g>
	<g>
		<polygon fill="#CE3C27" points="17.851,28.573 0.047,28.615 0,13.131 17.804,13.091 		"/>
		<polygon fill="#CE3C27" points="17.903,45.955 0.1,45.996 0.053,30.512 17.856,30.473 		"/>
		<polygon fill="#99C63C" points="17.956,63.338 0.152,63.381 0.105,47.896 17.907,47.855 		"/>
		<polygon fill="#99C63C" points="37.556,28.617 19.754,28.661 19.707,13.176 37.509,13.136 		"/>
		<polygon fill="#CE3C27" points="37.606,45.86 19.806,45.9 19.758,30.418 37.562,30.376 		"/>
		<polygon fill="#99C63C" points="37.661,63.242 19.857,63.284 19.812,47.8 37.614,47.76 		"/>
		<polygon fill="#99C63C" points="57.479,28.734 39.675,28.775 39.631,13.291 57.435,13.25 		"/>
		<polygon fill="#99C63C" points="57.531,45.973 39.729,46.014 39.682,30.531 57.483,30.492 		"/>
		<polygon fill="#99C63C" points="57.612,63.332 39.811,63.422 39.705,47.941 57.508,47.848 		"/>
		<g>
			<g>
				<path fill="#99C63C" d="M46.171,19.494c3.224,0,3.224-5,0-5S42.947,19.494,46.171,19.494L46.171,19.494z"/>
			</g>
		</g>
		<g>
			<g>
				<path fill="#99C63C" d="M45.696,25.336c3.224,0,3.224-5,0-5S42.472,25.336,45.696,25.336L45.696,25.336z"/>
			</g>
		</g>
	</g>
</g>
</svg>
